<mxfile host="Electron" modified="2023-11-15T15:16:14.646Z" agent="Mozilla/5.0 (Windows NT 10.0; Win64; x64) AppleWebKit/537.36 (KHTML, like Gecko) draw.io/22.0.3 Chrome/114.0.5735.289 Electron/25.8.4 Safari/537.36" etag="4_02cP9orXESZeLUb6mn" version="22.0.3" type="device">
  <diagram id="C5RBs43oDa-KdzZeNtuy" name="Page-1">
    <mxGraphModel dx="1863" dy="606" grid="1" gridSize="10" guides="1" tooltips="1" connect="1" arrows="1" fold="1" page="1" pageScale="1" pageWidth="827" pageHeight="1169" math="0" shadow="0">
      <root>
        <mxCell id="WIyWlLk6GJQsqaUBKTNV-0" />
        <mxCell id="WIyWlLk6GJQsqaUBKTNV-1" parent="WIyWlLk6GJQsqaUBKTNV-0" />
        <mxCell id="YpCMg9iVH0J_6V9Sf4-O-0" value="start" style="ellipse;whiteSpace=wrap;html=1;" vertex="1" parent="WIyWlLk6GJQsqaUBKTNV-1">
          <mxGeometry x="310" y="20" width="120" height="80" as="geometry" />
        </mxCell>
        <mxCell id="YpCMg9iVH0J_6V9Sf4-O-5" style="edgeStyle=orthogonalEdgeStyle;rounded=0;orthogonalLoop=1;jettySize=auto;html=1;exitX=0.5;exitY=1;exitDx=0;exitDy=0;entryX=0.5;entryY=0;entryDx=0;entryDy=0;" edge="1" parent="WIyWlLk6GJQsqaUBKTNV-1" source="YpCMg9iVH0J_6V9Sf4-O-2" target="YpCMg9iVH0J_6V9Sf4-O-3">
          <mxGeometry relative="1" as="geometry" />
        </mxCell>
        <mxCell id="YpCMg9iVH0J_6V9Sf4-O-2" value="n" style="shape=parallelogram;perimeter=parallelogramPerimeter;whiteSpace=wrap;html=1;fixedSize=1;" vertex="1" parent="WIyWlLk6GJQsqaUBKTNV-1">
          <mxGeometry x="300" y="120" width="120" height="60" as="geometry" />
        </mxCell>
        <mxCell id="YpCMg9iVH0J_6V9Sf4-O-7" style="edgeStyle=orthogonalEdgeStyle;rounded=0;orthogonalLoop=1;jettySize=auto;html=1;exitX=0.5;exitY=1;exitDx=0;exitDy=0;entryX=0.5;entryY=0;entryDx=0;entryDy=0;" edge="1" parent="WIyWlLk6GJQsqaUBKTNV-1" source="YpCMg9iVH0J_6V9Sf4-O-3" target="YpCMg9iVH0J_6V9Sf4-O-6">
          <mxGeometry relative="1" as="geometry" />
        </mxCell>
        <mxCell id="YpCMg9iVH0J_6V9Sf4-O-3" value="a=0&lt;br&gt;arr[n]&lt;br&gt;sumFind" style="rounded=0;whiteSpace=wrap;html=1;" vertex="1" parent="WIyWlLk6GJQsqaUBKTNV-1">
          <mxGeometry x="300" y="210" width="120" height="60" as="geometry" />
        </mxCell>
        <mxCell id="YpCMg9iVH0J_6V9Sf4-O-4" style="edgeStyle=orthogonalEdgeStyle;rounded=0;orthogonalLoop=1;jettySize=auto;html=1;exitX=0.5;exitY=1;exitDx=0;exitDy=0;entryX=0.573;entryY=0.023;entryDx=0;entryDy=0;entryPerimeter=0;" edge="1" parent="WIyWlLk6GJQsqaUBKTNV-1" source="YpCMg9iVH0J_6V9Sf4-O-0" target="YpCMg9iVH0J_6V9Sf4-O-2">
          <mxGeometry relative="1" as="geometry" />
        </mxCell>
        <mxCell id="YpCMg9iVH0J_6V9Sf4-O-9" style="edgeStyle=orthogonalEdgeStyle;rounded=0;orthogonalLoop=1;jettySize=auto;html=1;exitX=0.5;exitY=1;exitDx=0;exitDy=0;entryX=0.5;entryY=0;entryDx=0;entryDy=0;" edge="1" parent="WIyWlLk6GJQsqaUBKTNV-1" source="YpCMg9iVH0J_6V9Sf4-O-6" target="YpCMg9iVH0J_6V9Sf4-O-8">
          <mxGeometry relative="1" as="geometry" />
        </mxCell>
        <mxCell id="YpCMg9iVH0J_6V9Sf4-O-16" style="edgeStyle=orthogonalEdgeStyle;rounded=0;orthogonalLoop=1;jettySize=auto;html=1;exitX=0;exitY=0.5;exitDx=0;exitDy=0;" edge="1" parent="WIyWlLk6GJQsqaUBKTNV-1" source="YpCMg9iVH0J_6V9Sf4-O-6">
          <mxGeometry relative="1" as="geometry">
            <mxPoint x="180" y="350" as="targetPoint" />
          </mxGeometry>
        </mxCell>
        <mxCell id="YpCMg9iVH0J_6V9Sf4-O-6" value="a&amp;lt;sizeof(arr)/sizeof(int)" style="rhombus;whiteSpace=wrap;html=1;" vertex="1" parent="WIyWlLk6GJQsqaUBKTNV-1">
          <mxGeometry x="265" y="310" width="190" height="80" as="geometry" />
        </mxCell>
        <mxCell id="YpCMg9iVH0J_6V9Sf4-O-11" style="edgeStyle=orthogonalEdgeStyle;rounded=0;orthogonalLoop=1;jettySize=auto;html=1;exitX=0.5;exitY=1;exitDx=0;exitDy=0;entryX=0.5;entryY=0;entryDx=0;entryDy=0;" edge="1" parent="WIyWlLk6GJQsqaUBKTNV-1" source="YpCMg9iVH0J_6V9Sf4-O-8" target="YpCMg9iVH0J_6V9Sf4-O-10">
          <mxGeometry relative="1" as="geometry" />
        </mxCell>
        <mxCell id="YpCMg9iVH0J_6V9Sf4-O-8" value="arr[a]=" style="shape=parallelogram;perimeter=parallelogramPerimeter;whiteSpace=wrap;html=1;fixedSize=1;" vertex="1" parent="WIyWlLk6GJQsqaUBKTNV-1">
          <mxGeometry x="300" y="430" width="120" height="60" as="geometry" />
        </mxCell>
        <mxCell id="YpCMg9iVH0J_6V9Sf4-O-13" style="edgeStyle=orthogonalEdgeStyle;rounded=0;orthogonalLoop=1;jettySize=auto;html=1;exitX=0.5;exitY=1;exitDx=0;exitDy=0;entryX=0.5;entryY=0;entryDx=0;entryDy=0;" edge="1" parent="WIyWlLk6GJQsqaUBKTNV-1" source="YpCMg9iVH0J_6V9Sf4-O-10" target="YpCMg9iVH0J_6V9Sf4-O-12">
          <mxGeometry relative="1" as="geometry" />
        </mxCell>
        <mxCell id="YpCMg9iVH0J_6V9Sf4-O-10" value="nhap gia tri" style="shape=parallelogram;perimeter=parallelogramPerimeter;whiteSpace=wrap;html=1;fixedSize=1;" vertex="1" parent="WIyWlLk6GJQsqaUBKTNV-1">
          <mxGeometry x="300" y="530" width="120" height="60" as="geometry" />
        </mxCell>
        <mxCell id="YpCMg9iVH0J_6V9Sf4-O-14" style="edgeStyle=orthogonalEdgeStyle;rounded=0;orthogonalLoop=1;jettySize=auto;html=1;exitX=1;exitY=0.5;exitDx=0;exitDy=0;" edge="1" parent="WIyWlLk6GJQsqaUBKTNV-1" source="YpCMg9iVH0J_6V9Sf4-O-12" target="YpCMg9iVH0J_6V9Sf4-O-6">
          <mxGeometry relative="1" as="geometry">
            <mxPoint x="460" y="350" as="targetPoint" />
            <Array as="points">
              <mxPoint x="470" y="660" />
              <mxPoint x="470" y="350" />
            </Array>
          </mxGeometry>
        </mxCell>
        <mxCell id="YpCMg9iVH0J_6V9Sf4-O-12" value="a++" style="rounded=0;whiteSpace=wrap;html=1;" vertex="1" parent="WIyWlLk6GJQsqaUBKTNV-1">
          <mxGeometry x="300" y="630" width="120" height="60" as="geometry" />
        </mxCell>
        <mxCell id="YpCMg9iVH0J_6V9Sf4-O-17" value="true" style="text;html=1;align=center;verticalAlign=middle;resizable=0;points=[];autosize=1;strokeColor=none;fillColor=none;" vertex="1" parent="WIyWlLk6GJQsqaUBKTNV-1">
          <mxGeometry x="360" y="388" width="40" height="30" as="geometry" />
        </mxCell>
        <mxCell id="YpCMg9iVH0J_6V9Sf4-O-18" value="false" style="text;html=1;align=center;verticalAlign=middle;resizable=0;points=[];autosize=1;strokeColor=none;fillColor=none;" vertex="1" parent="WIyWlLk6GJQsqaUBKTNV-1">
          <mxGeometry x="205" y="318" width="50" height="30" as="geometry" />
        </mxCell>
        <mxCell id="YpCMg9iVH0J_6V9Sf4-O-21" style="edgeStyle=orthogonalEdgeStyle;rounded=0;orthogonalLoop=1;jettySize=auto;html=1;exitX=0;exitY=0.5;exitDx=0;exitDy=0;" edge="1" parent="WIyWlLk6GJQsqaUBKTNV-1" source="YpCMg9iVH0J_6V9Sf4-O-19" target="YpCMg9iVH0J_6V9Sf4-O-20">
          <mxGeometry relative="1" as="geometry" />
        </mxCell>
        <mxCell id="YpCMg9iVH0J_6V9Sf4-O-19" value="findNumber" style="shape=parallelogram;perimeter=parallelogramPerimeter;whiteSpace=wrap;html=1;fixedSize=1;" vertex="1" parent="WIyWlLk6GJQsqaUBKTNV-1">
          <mxGeometry x="70" y="320" width="120" height="60" as="geometry" />
        </mxCell>
        <mxCell id="YpCMg9iVH0J_6V9Sf4-O-22" style="edgeStyle=orthogonalEdgeStyle;rounded=0;orthogonalLoop=1;jettySize=auto;html=1;exitX=0.5;exitY=1;exitDx=0;exitDy=0;" edge="1" parent="WIyWlLk6GJQsqaUBKTNV-1" source="YpCMg9iVH0J_6V9Sf4-O-20">
          <mxGeometry relative="1" as="geometry">
            <mxPoint x="-85" y="430" as="targetPoint" />
          </mxGeometry>
        </mxCell>
        <mxCell id="YpCMg9iVH0J_6V9Sf4-O-33" style="edgeStyle=orthogonalEdgeStyle;rounded=0;orthogonalLoop=1;jettySize=auto;html=1;exitX=0.5;exitY=0;exitDx=0;exitDy=0;entryX=0.5;entryY=1;entryDx=0;entryDy=0;" edge="1" parent="WIyWlLk6GJQsqaUBKTNV-1" source="YpCMg9iVH0J_6V9Sf4-O-20" target="YpCMg9iVH0J_6V9Sf4-O-32">
          <mxGeometry relative="1" as="geometry" />
        </mxCell>
        <mxCell id="YpCMg9iVH0J_6V9Sf4-O-20" value="a&amp;lt;sizeof(arr)/sizeof(int)?" style="rhombus;whiteSpace=wrap;html=1;" vertex="1" parent="WIyWlLk6GJQsqaUBKTNV-1">
          <mxGeometry x="-170" y="310" width="170" height="80" as="geometry" />
        </mxCell>
        <mxCell id="YpCMg9iVH0J_6V9Sf4-O-24" style="edgeStyle=orthogonalEdgeStyle;rounded=0;orthogonalLoop=1;jettySize=auto;html=1;exitX=0.5;exitY=1;exitDx=0;exitDy=0;" edge="1" parent="WIyWlLk6GJQsqaUBKTNV-1" source="YpCMg9iVH0J_6V9Sf4-O-23">
          <mxGeometry relative="1" as="geometry">
            <mxPoint x="-85" y="570" as="targetPoint" />
          </mxGeometry>
        </mxCell>
        <mxCell id="YpCMg9iVH0J_6V9Sf4-O-23" value="findNumber==arr[a]?" style="rhombus;whiteSpace=wrap;html=1;" vertex="1" parent="WIyWlLk6GJQsqaUBKTNV-1">
          <mxGeometry x="-232.5" y="430" width="295" height="80" as="geometry" />
        </mxCell>
        <mxCell id="YpCMg9iVH0J_6V9Sf4-O-26" style="edgeStyle=orthogonalEdgeStyle;rounded=0;orthogonalLoop=1;jettySize=auto;html=1;exitX=0.5;exitY=1;exitDx=0;exitDy=0;" edge="1" parent="WIyWlLk6GJQsqaUBKTNV-1" source="YpCMg9iVH0J_6V9Sf4-O-25">
          <mxGeometry relative="1" as="geometry">
            <mxPoint x="-85" y="670" as="targetPoint" />
          </mxGeometry>
        </mxCell>
        <mxCell id="YpCMg9iVH0J_6V9Sf4-O-25" value="a" style="shape=parallelogram;perimeter=parallelogramPerimeter;whiteSpace=wrap;html=1;fixedSize=1;" vertex="1" parent="WIyWlLk6GJQsqaUBKTNV-1">
          <mxGeometry x="-145" y="570" width="120" height="60" as="geometry" />
        </mxCell>
        <mxCell id="YpCMg9iVH0J_6V9Sf4-O-29" style="edgeStyle=orthogonalEdgeStyle;rounded=0;orthogonalLoop=1;jettySize=auto;html=1;exitX=0.5;exitY=1;exitDx=0;exitDy=0;entryX=0.5;entryY=0;entryDx=0;entryDy=0;" edge="1" parent="WIyWlLk6GJQsqaUBKTNV-1" source="YpCMg9iVH0J_6V9Sf4-O-27" target="YpCMg9iVH0J_6V9Sf4-O-28">
          <mxGeometry relative="1" as="geometry" />
        </mxCell>
        <mxCell id="YpCMg9iVH0J_6V9Sf4-O-27" value="sumFind=sumFind+arr[a]" style="rounded=0;whiteSpace=wrap;html=1;" vertex="1" parent="WIyWlLk6GJQsqaUBKTNV-1">
          <mxGeometry x="-145" y="670" width="120" height="60" as="geometry" />
        </mxCell>
        <mxCell id="YpCMg9iVH0J_6V9Sf4-O-30" style="edgeStyle=orthogonalEdgeStyle;rounded=0;orthogonalLoop=1;jettySize=auto;html=1;exitX=0;exitY=0.5;exitDx=0;exitDy=0;entryX=0;entryY=0.5;entryDx=0;entryDy=0;" edge="1" parent="WIyWlLk6GJQsqaUBKTNV-1" target="YpCMg9iVH0J_6V9Sf4-O-20">
          <mxGeometry relative="1" as="geometry">
            <mxPoint x="-280" y="350" as="targetPoint" />
            <mxPoint x="-145" y="821.2" as="sourcePoint" />
            <Array as="points">
              <mxPoint x="-290" y="821" />
              <mxPoint x="-290" y="350" />
            </Array>
          </mxGeometry>
        </mxCell>
        <mxCell id="YpCMg9iVH0J_6V9Sf4-O-28" value="a++" style="rounded=0;whiteSpace=wrap;html=1;" vertex="1" parent="WIyWlLk6GJQsqaUBKTNV-1">
          <mxGeometry x="-145" y="780" width="120" height="60" as="geometry" />
        </mxCell>
        <mxCell id="YpCMg9iVH0J_6V9Sf4-O-31" value="true" style="text;html=1;align=center;verticalAlign=middle;resizable=0;points=[];autosize=1;strokeColor=none;fillColor=none;" vertex="1" parent="WIyWlLk6GJQsqaUBKTNV-1">
          <mxGeometry x="-90" y="398" width="40" height="30" as="geometry" />
        </mxCell>
        <mxCell id="YpCMg9iVH0J_6V9Sf4-O-32" value="sumFind" style="shape=parallelogram;perimeter=parallelogramPerimeter;whiteSpace=wrap;html=1;fixedSize=1;" vertex="1" parent="WIyWlLk6GJQsqaUBKTNV-1">
          <mxGeometry x="-145" y="180" width="120" height="60" as="geometry" />
        </mxCell>
        <mxCell id="YpCMg9iVH0J_6V9Sf4-O-34" value="end" style="ellipse;whiteSpace=wrap;html=1;" vertex="1" parent="WIyWlLk6GJQsqaUBKTNV-1">
          <mxGeometry x="-140" y="40" width="120" height="80" as="geometry" />
        </mxCell>
        <mxCell id="YpCMg9iVH0J_6V9Sf4-O-35" style="edgeStyle=orthogonalEdgeStyle;rounded=0;orthogonalLoop=1;jettySize=auto;html=1;exitX=0.5;exitY=0;exitDx=0;exitDy=0;entryX=0.435;entryY=1.027;entryDx=0;entryDy=0;entryPerimeter=0;" edge="1" parent="WIyWlLk6GJQsqaUBKTNV-1" source="YpCMg9iVH0J_6V9Sf4-O-32" target="YpCMg9iVH0J_6V9Sf4-O-34">
          <mxGeometry relative="1" as="geometry" />
        </mxCell>
      </root>
    </mxGraphModel>
  </diagram>
</mxfile>
